<?xml version="1.0" encoding="UTF-8"?>
<svg id="Layer_2" data-name="Layer 2" xmlns="http://www.w3.org/2000/svg" viewBox="0 0 229.54 1080">
  <defs>
    <style>
      .cls-1 {
        opacity: .85;
      }

      .cls-2 {
        fill: #e4e4e4;
      }

      .cls-2, .cls-3, .cls-4, .cls-5, .cls-6 {
        stroke-width: 0px;
      }

      .cls-3 {
        fill: #dedede;
      }

      .cls-4 {
        fill: #fafafa;
      }

      .cls-5 {
        fill: #f1f1f1;
      }

      .cls-6 {
        fill: #eaeaea;
      }
    </style>
  </defs>
  <g id="Layer_1-2" data-name="Layer 1">
    <g class="cls-1">
      <path class="cls-3" d="m1.46.26c.02.54-.01,1.07-.07,1.59,2.68-.07,5.35-.17,8.03-.33,5.78-.34,11.58-.25,17.38-.27-1.58.2-1.66.93-1.42,3.41.59,6.16,2.57,11.83,5.94,17.02.56.87,1.03,1.77,1.31,2.78,3.02,10.85,1.89,21.93,1.35,32.9-.28,5.67-.14,11.07,2.77,15.94,2.25,3.75,4.27,7.47,4.71,11.87.53,5.23,3.97,10.03,2.26,15.58-.05.17,0,.39.07.55,2.55,5.04,1.16,10.97,3.58,16.05.37.77.13,1.68-.08,2.49-1.25,4.88-1.01,9.85-.93,14.81.04,2.81-.11,5.65.78,8.35,2.34,7.08,3.15,14.22,2.69,21.76-.73,12.03.61,23.89,7.03,34.59.29.48.43,1.04.63,1.56,2.33,6.14,1.05,12.62,1.46,18.91.4,6.04.32,12.11,1.91,17.97,1.29,4.77,2.02,9.48,1.27,14.38-.17,1.11-.16,2.26.14,3.35.54,1.97,1.85,2.62,4.08,1.94-1.37.93-1.97,2.04-2.07,3.6-.24,4.03.63,8.02.21,12.05-.14,1.31.68,2.53,1.35,3.64.56.94,1.43,1.15,2.14.87-2.58,1.36-2.09,4.02-1.71,6.65.57,3.89,2.13,7.54,2.62,11.48.71,5.75,1.83,11.44,3.33,17.06,1.15,4.29,3.16,8.54,1.87,13.15-1.02,3.65-.11,7.24.02,10.85.06,1.59.77,3.05,2,4.22.96.91,1.9,2.01,1.89,3.36-.05,5.23-.21,10.46-1.75,15.52-.79,2.58-1.99,5.1-1.59,7.88.67,4.73.7,9.5.82,14.26.18,6.88.04,13.77.04,20.66,0,1.79.24,3.5.72,5.25.88,3.23,1.83,6.5-.37,9.73-.7,1.02-.62,2.49-.71,3.82-.23,3.27,1.82,5.94,2.14,9.12.22,2.19,2.28,2.34,4.12.58-.35.32-.53.95-.91,1.03-2.71.59-2.81,2.63-2.7,4.76.11,2.04-.57,3.84-1.41,5.65-1.5,3.25-1.89,6.59-.8,10.11.75,2.41,1.15,4.91,1.06,7.47-.2,5.51-.27,11.08.4,16.52.73,5.9,1.58,11.81,2.43,17.7.54,3.77,1.13,7.53,1.83,11.26.75,4.02,1.97,7.96,4.81,11.15.49.55.52,1.39.57,2.15.23,3.12,0,6.2-1.3,9.09-.59,1.32-.9,2.65-.82,4.08.28,4.54-1.41,8.84-1.6,13.33-.04,1.01-.62,1.95-1.09,2.87-2.18,4.24-3.53,8.88-3.38,13.49.19,5.88-1.19,11.31-2.74,16.8-.56,1.99-1.24,3.97.14,5.93.6.85-.22,1.34-.54,1.97-1.35,2.71-2.44,5.47-1.48,8.61.44,1.45.4,2.92.13,4.44-.38,2.22-.44,4.52-.07,6.72.65,3.83-.39,7.22-2.06,10.54-1.35,2.67-2.92,5.26-3.52,8.24-1.17,5.81-5.18,10.82-4.78,17.08.04.63-.33,1.27-.67,1.83-.66,1.08-.83,2.26-.85,3.5-.04,2.52-.67,5-.41,7.55.1,1-.08,2.11-.91,2.86-2.26,2.03-4.21,4.77-3.84,7.51.45,3.34-2.75,4.85-2.6,7.7.02.47-.02.94.07,1.4.37,1.85.3,3.73.34,5.6.19,9-1.37,17.87-2.13,26.79-.03.39-.22.7-.42,1.02-1.69,2.64-2.22,5.69-3.07,8.62-1,3.44.17,7.17-1.15,10.56-.95,2.43-1.19,4.89-1.11,7.43.06,1.8-.27,3.53-.73,5.26-.74,2.82-1.6,5.77-.54,8.56.87,2.29.67,4.37-.52,6.15-2.17,3.25-2.73,6.91-3.49,10.57-.33,1.57-.79,3.11.44,4.12-.26-.03-.53-.03-.83.04-1.51.34-1.52,1.74-1.58,2.96-.08,1.78-.37,3.54-.47,5.31-.15,2.64-1.25,5.2-1.01,7.77.37,4.03.2,8.05.37,12.07.08,1.9.43,3.39,1.97,4.67,1.81,1.51,2.73,3.66,2.63,5.98-.09,2.19.2,4.3.66,6.4,1.02,4.63,1.22,9.38,2,14.06.75,4.51.93,9.27,1.17,13.93.12,2.35.77,3.18,2.8,3.44-.05,0-.1,0-.15,0-1.72-.17-2.77,1.39-1.67,2.69,2.12,2.5,2.27,5.71,3.7,8.41,1.6,3,1.98,6.13,1.67,9.5-.28,3.05-.38,6.18.35,9.2.43,1.8.44,3.47-.15,5.23-2.18,6.52-2.64,13.42-3.49,20.13-.61,4.84-.75,10.31,1.86,15.09.45.83.64,1.8.55,2.73-.53,5.65.32,11.28-.92,17.01-1.88,8.72-.73,17.86-2.93,26.63-1.41,5.59.04,11.16.6,16.72.1.95.25,1.82-.18,2.73-1.5,3.14-1.4,6.32-.12,9.49.36.88.74,1.7.27,2.68-.47.98-.2,1.98-.08,3.01.49,4.05.96,7.97-.15,12.18-1.27,4.83-3.54,9.78-1.59,15.04.16.44.09,1-.18,1.36-1.05,1.37-.89,2.91-1,4.51-.15,2.15.17,4.36-.27,6.42-1.26,5.81.16,11.55.18,17.31,0,3.13,1.22,6.52.53,9.29-1.02,4.12-.93,8.35-2.1,12.4-.33,1.13-.2,2.12.76,2.62-.96-.21-1.92-.55-2.86-1.06-.3-.17-.74-.1-1.11-.06-.72.07-1.43.13-2.15.18.09.53.16,1.07.19,1.63.01.32,0,.64-.01.96,84.04.04,103.67.05,187.72.1,2.11,0,2.58-.48,2.58-2.58-.05-358.28-.05-716.56,0-1074.84,0-2.11-.47-2.58-2.58-2.58C130.32.05,98.08.05,1.44.05c0,.07.02.14.02.21Zm51.83,1078.26c-1.27-.04-2.73.07-4.27.08,1.64-.07,3.14-.23,4.27-.08Zm-8.69-306.94c-.17-.2-.33-.41-.46-.64-.21-.37-.46-.69-.73-.96.53.28.77,1.05,1.19,1.6ZM68.91,1.18c-10.96,0-21.94,0-32.92,0,10.96-.08,21.93,0,32.92,0Z"/>
      <path class="cls-4" d="m52.07,845.81c.1.02.2.05.29.11-.09-.05-.19-.08-.29-.11Z"/>
      <path class="cls-2" d="m4.39,22c.89-3.4.11-5.67-2.61-7.67-1.21-.89-2.03-2.05-1.7-3.6.47-2.23.41-4.48.35-6.72-.06-2.05.82-2.86,2.84-2.84,5.71.05,11.43.01,17.14.01,18.46,0,36.91,0,55.37,0-1.21.71-2.54.55-3.84.55-7.78,0-15.56-.08-23.33.06-2.22.04-4.51-.74-6.7,1.01-1.93,1.55-3.24-1.97-5.72-1.21-2.31.71-5.01.17-7.54.17-1.54,0-2.13.62-1.96,2.26.65,6.15,2.6,11.78,5.89,17.03,2.55,4.06,2.99,8.87,3.17,13.44.37,9.51.08,19.04-.59,28.55-.24,3.48,1.09,7.02,3.1,10.01,2.33,3.47,3.98,7.13,4.55,11.32.57,4.16,1.71,8.21,3.47,12.06.21.47.37.98.05,1.32-1.85,1.97-.68,3.94-.2,6,.7,2.99,1.49,5.99,1.32,9.14-.04.7.11,1.78.57,2.09,2.6,1.71,1.33,3.52.65,5.67-1.39,4.42-.72,9.08-.93,13.64-.23,5.09,1.34,9.75,2.59,14.53,1.64,6.3,1.16,12.67.8,19.11-.51,9.02,1.62,17.77,4.25,26.35.79,2.59,3.25,4.23,3.89,7.07.39,1.73.77,3.36.81,5.15.09,4.09-.6,8.22.8,12.26.53,1.54-.42,3.21-.49,4.9-.29,7.29,2.79,13.98,3.27,21.11.16,2.35.42,4.65-.05,6.98-.24,1.2-.36,2.43.08,3.61.3.8.76,1.62,1.77,1.53.93-.08,1.1-.89,1.13-1.68.02-.55-.08-1.31.7-1.25,1.08.09,1.44,1.11,1.84,1.93.35.72.12,1.35-.77,1.38-2.23.09-2.41,1.81-2.62,3.36-.56,4.19.57,8.35.26,12.59-.14,1.82.68,4.33,3.84,3.01.69-.29,1.64-.44,2.31.32-.18.78-.87.65-1.35.76-2.69.63-3.66,2.45-3.38,5.01.16,1.48.45,2.98.92,4.39,2.21,6.71,2.31,13.82,4.07,20.61.94,3.61,1.72,7.25,2.91,10.81.96,2.87.66,5.92.05,8.89-.24,1.18-1.29,2.5.63,3.33.64.28.1.75-.07,1.15-1.38,3.36-.85,6.43,1.69,9.02,1.56,1.59,2.16,3.34,2.06,5.57-.17,3.93-1.2,7.77-1.01,11.73.03.68-.41,1.42-.74,2.08-2.17,4.4-2.42,8.83-.76,13.52.68,1.91-.7,3.95-.37,6.13.54,3.56-.33,7.28,1,10.8.27.73-.33.99-.71,1.36-.6.58-.89,1.4-.57,2.06,1.25,2.55.53,5.17.35,7.73-.23,3.46.95,6.64,1.74,9.88.49,1.99.22,3.67-.61,5.4-.8,1.66-2.59,3.26-.26,5.14.52.42-.08.79-.43,1.08-.61.51-.82,1.23-.11,1.63,1.79,1.02,1.78,2.34,1.16,4.05-.37,1.03-.02,2.19,1.12,2.56,1.14.38,1.58-.72,2.07-1.5.63-.99.91-2.24,2.5-3.23.03,3.24-1.92,5.26-3.42,6.95-1.08,1.21-1.67,2.16-1.38,3.51.43,1.99-.15,3.6-1.08,5.31-1.81,3.33-2.33,6.77-1.02,10.54,1.72,4.97.67,10.19.9,15.3.07,1.54-.41,3.24,1.25,4.36.43.29.57.91.19,1.23-1.97,1.72-.54,3.57-.39,5.44.46,5.94,1.19,11.85,2.33,17.67.85,4.37,1.22,8.84,2.39,13.14.31,1.15.8,2.41,1.6,3.24,4.33,4.42,3.02,9.5,1.69,14.48-.53,1.99-.65,3.99-1.02,5.93-1.07,5.53-.86,11.26-3.4,16.63-2.21,4.68-3.53,9.9-2.67,15.29.17,1.05.08,2.05-.17,3.06-.95,3.72-1.91,7.44-2.87,11.15-.3,1.16-.98,2.37-.15,3.5,1,1.37,1.94-.75,3.12-.12.16,1.33-.66,2.38-1.58,3-3.84,2.59-3.6,6.16-2.6,9.92.25.93.59,1.77.16,2.7-1.11,2.42-.94,5.02-.5,7.46.76,4.15-.31,7.82-2.25,11.32-2.25,4.05-3.02,8.69-4.96,12.74-2.35,4.89-2.62,10.14-4.14,15.13-1.12,3.69-1.69,7.84-.4,11.77.45,1.36.39,1.71-1.11,1.96-1.94.33-4.53,4.28-4.47,6.28.02.56.28.76.74,1.02,2.57,1.42,2.56,1.44,1.29,4.06-1.92-2.17-2.32-2.08-3.67.64-.6,1.22-.69,2.42-.6,3.79.65,9.28.23,18.52-1.7,27.62-.61,2.86.75,5.03,1.88,8.09-2.51-1.56-3.18-1.39-4,1.23-1.19,3.81-1.33,7.65-2.08,11.44-1.26,6.41-1.44,12.96-2.95,19.31-.65,2.73-1.31,5.6,1.94,7.43.74.42.76,1.19,0,1.86-4.69,4.15-5.2,10.03-6.44,15.61-.16.73.17,1.21.72,1.69.69.62,1.35,1.3,1.89,2.05.84,1.16,2.92,1.85,2.36,3.4-.28.76-2.36.87-4.06,1.41,1.39-1.95,1.88-3.67,0-5.22-.43-.36-.77-.87-1.42-.73-.8.18-.94.87-.98,1.53-.51,8-1.87,15.95-1.15,24.02.22,2.47.51,4.48,2.56,6.37,1.78,1.64,2.66,4.23,2.19,6.97-.47,2.75.34,5.5,1.03,8.01.97,3.5.16,7.1,1.63,10.65,1.04,2.5.31,5.85.57,8.82.19,2.19.83,4.31.6,6.61-.18,1.72,1.25,2.38,2.95,1.6.78-.36,1.65-.92,2.16.18.63,1.33,1.23,2.73,1.47,4.16.1.58-.86.49-1.28.03-.44-.48-.69-1.14-1.17-1.56-1.04-.91-2.64-1.58-3.52-.62-.89.96.53,1.97,1.39,2.59.91.66,1.48,1.27,1.32,2.51-.22,1.64.42,3.15,1.25,4.53,1.83,3.04,1.99,6.3,1.77,9.74-.22,3.33-.52,6.76.61,9.97.89,2.53-.32,4.56-.98,6.74-1.29,4.25-.85,8.83-2.16,12.97-1.6,5.06-.35,10.02-.58,15.01-.02.37,0,.79.18,1.1,3.42,6.14,1.7,12.83,1.89,19.27.09,3.01-1.84,5.98-1.48,9.07.66,5.68-1.39,11.15-.87,16.84.22,2.44-1.64,4.89-1.76,7.56-.24,5.23.22,10.4,1.51,15.47.31,1.23,1.08,2.04-.85,2.96-2.02.96-1.12,7.53,1.15,8.62,1.4.67,1.19,1.45.91,2.46-.23.85-.29,1.71-1.56.6-.64-.56-.67.63-.49,1.01,1.38,2.87.01,6.2,1.54,9.04.28.52.01,1.1-.29,1.6-2.63,4.3-2.27,9.39-3.65,14.03-.35,1.18.5,2.12,1.39,2.89.8.69,1.34,1.7.31,2.36-3.27,2.1-1.79,5.42-2.12,8.17-.19,1.53-.25,3.1-.46,4.67-.67,4.84.12,9.69.45,14.51.18,2.69-.5,5.6,1.24,8.13.27.4.03,1.34-.25,1.89-2.42,4.73-1.37,10.14-2.99,15.02-5.68.11-5.58.07-7.29-5.33-1.19-3.77-1.86-7.58-1.76-11.53-.3-3.09,1.22-5.94,1.2-9.03-.01-1.55.44-3.13.95-4.65.58-1.73.29-3.47-.36-5.2-.39-1.03-.26-2.22-.3-3.34,0-1.68-.17-3.35-.39-5.02-.34-2.52-.26-4.95,1.01-7.34,2.03-3.81,2.07-7.72-.33-11.46-.81-1.26-.76-2.65-.87-4.05-.51-6.21.84-12.27,1.49-18.38.2-1.87.09-3.49-1.04-5.03-1.7-2.31-2.23-4.8-1.44-7.66.84-3.06.39-5.95-2.05-8.26-1.13-1.07-1.66-2.42-1.12-3.81.9-2.31,1.08-4.48-.02-6.76-.31-.65-.02-1.47.12-2.2,2.83-6.83,4.28-14.09,6.6-21.08.72-2.18,1.14-4.01-1.64-4.98-1-.35-1.24-1.32-1.39-2.28-.4-2.7-1.21-5.28-2.36-7.75-1.15-2.48-1.41-5.03-.6-7.64.56-1.8.09-3.03-1.62-3.93-2.11-1.12-3.53-3.07-3.69-5.33-.21-3.02-1.22-5.78-1.9-8.66-.15-.87.28-1.99-.69-2.51-3.7-1.97-3.07-5.28-2.41-8.33.86-3.98.99-7.91.49-11.92-.4-3.26-.62-6.6.02-9.78.81-4.05.78-7.91-.45-11.84-1.06-3.41-1.53-6.92-1.55-10.51-.01-2.07-.63-4.05-1.3-6.01-1.09-3.2-1.91-6.45-2.04-9.84-.04-1.13-.05-2.36-.68-3.27-3.62-5.24-2.59-11.33-3.15-17.09-.33-3.4-.37-6.89,1.18-10.19.72-1.55.1-3.31.08-4.99-.04-3.08-1.2-6.36,1.24-9.12,2.18-.92,2.55-2.99,2.96-4.92.29-1.36.53-2.69,1.26-3.89,2.8-3.89,2.87-8.25,2.16-12.74-.07-.57-.24-1.14.04-1.7.5-1.59,1.55-2.65,3.08-3.26.7-.41,1.1-1.04,1.32-1.81.55-3.15.45-6.35.82-9.51,1.05-2.83.6-5.91,1.39-8.77.39-1.4.88-2.82,2.16-3.74.2-.19.48-.34.6-.57,1.28-2.38,2.71-4.55,6.12-4.16-3.82-2.75-4.04-5.52-1.16-9.04,1.52-1.86,3.04-3.75,3.68-6.19.51-1.94.27-3.72-1.52-4.63-2.94-1.47-3.44-3.79-3.03-6.67.1-.69.07-1.41.12-2.12.02-.44.27-.81.41-1.21.37-1.49,1.09-2.87,1.17-4.44-.28-2.75.78-5.41.59-8.16,0-.29.02-.59.05-.88.07-.42.27-.79.48-1.16.96-1.81,1.91-3.61,1.47-5.79-.13-.66,0-1.54.61-1.73,2.63-.82,1.84-2.91,1.9-4.7.12-3.52.19-7.03-.29-10.54-1.04-2.63-.79-5.01,1.4-6.99,1.84-3.24,3.26-6.56,2.77-10.45-.3-2.36.27-4.64,1.37-6.76.55-1.07.93-2.18.93-3.39.02-3.64.98-7.19,1.12-10.81.05-.96.67-1.44,1.44-1.89,3.02-1.74,4.07-4.22,2.59-7.2-1.51-3.05-1.11-6.42-2.09-9.54-.29-.92.12-1.89.65-2.66,1.73-2.54,2.51-5.42,3.05-8.38.39-2.14,1.35-3.74,3.31-4.91,2.71-1.63,2.7-2.96.32-4.95-3.53-2.94-3.93-4.97-1.61-8.97,1.85-3.18,2.91-6.68,4.18-10.09.75-2.01.54-4.09-.26-6.04-.95-2.3-1.13-4.73-1.39-7.13-.33-3.01,0-5.92,1.58-8.68,1.59-2.8,2.42-5.87,2.31-9.15-.04-1.13,0-2.32.68-3.25,2.05-2.84,2.29-6.07,2.1-9.38-.13-2.19.59-3.92,2.12-5.54,2.53-2.67,2.54-4.07.13-6.77-1.22-1.37-1.71-2.82-1.68-4.59.02-1.68,0-3.37-.02-5.05-.01-1.57-.53-2.89-1.68-4.02-3.01-2.94-3.24-6.48-2.96-10.55.23-3.39.36-7.09-2.43-10.2-2.56-2.84-1.48-6.57-.8-9.92.43-2.1.46-3.87-1.15-5.43-2.7-1.5-1.42-3.8-1.23-5.9,2.1-1.92,2.85-4.16,2.02-7.02-.46-1.59-.41-3.37-.14-4.99.82-4.92.05-9.59-1.74-14.16-.02-.75-.01-1.51-.03-2.26.05-4.66.35-9.25,1.26-13.87.85-4.35,1.2-8.8-.11-13.32-1.16-3.98-1.07-8.14,1.09-11.99,1.22-2.17,1.85-4.51,1.08-7.02-.31-1.01-.7-2.05-1.62-2.56-2.91-1.59-3.54-4.16-3.33-7.16.19-3.52.2-7.05.16-10.58.9-3.74-.66-7.03-2.12-10.25-1.43-3.18-1.81-6.35-.94-9.68.43-1.65.71-3.31.6-5-.4-6.59-.04-13.29-2.93-19.52-.6-1.3-.64-2.85.05-4.1,1.27-2.34.87-4.27-.86-6.13-.57-.62-.89-1.42-1.04-2.28.06-3.61.55-7.22-.03-10.82.13-1.42.93-2.61,1.41-3.91,1-2.76,1.07-5.43-.12-8.13-1.2-2.72-3.09-5.07-4.09-7.89-.09-.25-.29-.54-.54-.63-2.62-.93-3.58-3.24-4.61-5.5-1.77-1.81-1.84-4.1-1.67-6.39.11-1.45.72-2.71,2.29-3.21,1.86-.59,2.28-1.95,2.12-3.75-.23-2.53-.7-5-1.58-7.38-.67-1.8-.54-3.54-.18-5.47.66-3.53,1.05-7.22-1.79-10.23-.32-.34-.66-.72-.72-1.19-.88-6.51-3.79-12.58-4.11-19.22-.12-2.64.71-3.92,3.32-4.58.64-.16,1.28-.29,1.83-.68.47-.34.85-.76.75-1.39-.1-.64-.58-.93-1.14-1.1-1.02-.31-2.04-.12-3.06-.02-3.28.31-5.03-1-5.91-4.19-.65-2.36-.27-4.63.27-6.92.66-2.78.68-5.37-1.87-7.38-1.15-.91-1.04-2.35-1.04-3.65.01-2.11-.3-4.1-1.69-5.8-.23-.29-.03.11-.15-.23-3.09-8.79-7.56-17.26-8.04-26.71-.21-4.15-1.28-7.93-1.97-11.89-.71-4.07-2.56-7.8-2.93-11.93-.11-1.2-.14-2.31.1-3.46.35-1.22.14-2.45.07-3.68-.31-3.87.88-7.59,1.08-11.41.24-4.72-1.07-9.26-1.31-13.91-1.23-2.61-1.5-5.41-1.6-8.24-1.16-1.41-2.66-2.53-3.64-4.11-.55-3.04,1.52-5.28,2.54-7.8.86-2.13,1.04-3.82-.48-5.65-1.83-2.21-1.01-4.53,0-6.79,1.63-2.22-.8-3.68-1.07-5.54-.44-.59-.5-1.25-.41-1.95-1.71-2.43-.71-5.77-2.76-8.08-1.23-1.23-1.76-2.72-2.02-4.45-.47-3.18-1.97-6.16-1.79-9.49.06-1.04-.19-2.06,1-2.59Z"/>
      <path class="cls-6" d="m53.96,797.21c-.19-.41-.33-.57-.34-.74-.07-1.29,1.29-2.81-.42-3.83-1.71-1.02-2.98.46-4.37,1.07-1.13.5-1.67,1.99-3.72,2.14,2.09-2.92,4.88-4.05,7.38-5.48.97-.55,3.46,2.5,3.16,3.94-.22,1.02-.38,2.21-1.69,2.91Z"/>
      <path class="cls-5" d="m81.39,354.67c1.01,2.66.17,5.18-.12,7.71-.03.27-.43.71-.66.72-.59,0-.78-.59-.65-1,.81-2.42.73-5,1.42-7.43Z"/>
      <path class="cls-5" d="m55.8,186.03c-.95-2.16-1.89-4.35-.6-6.71.42,2.21,1.37,4.36.6,6.71Z"/>
      <path class="cls-5" d="m45.73,765.22c.05-1.09,3.31-4.18,4.34-4.21.25,0,.59.06.75.22.31.31.19.77-.12.96-1.5.92-3.02,1.8-3.91,3.42-.08.15-.53.24-.73.16-.19-.08-.26-.42-.33-.55Z"/>
      <path class="cls-5" d="m55.42,960.48c-1.39.51-2.36-.07-3.36-1.33,1.63-.43,2.47.5,3.36,1.33Z"/>
    </g>
  </g>
</svg>